<?xml version="1.0" encoding="utf-8"?>
<!-- Generated by IcoMoon.io -->
<!DOCTYPE svg PUBLIC "-//W3C//DTD SVG 1.1//EN" "http://www.w3.org/Graphics/SVG/1.1/DTD/svg11.dtd">
<svg version="1.1" xmlns="http://www.w3.org/2000/svg" xmlns:xlink="http://www.w3.org/1999/xlink" width="512" height="512" viewBox="0 0 512 512">
<g>
</g>
	<path d="M235.428 54.846c56.637 42.916 68.209 123.781 25.293 181.002-42.906 57.2-123.75 68.782-180.992 25.877-57.221-42.936-68.761-124.334-25.877-181.576 42.937-56.638 124.355-68.219 181.576-25.303v0zM218.378 52.265l-141.63 197.909 22.262 15.442 142.858-197.263-23.49-16.087z" fill="#000000" />
	<path d="M111.073 321.649l129.843-33.536 41.267 159.539-129.833 33.003c-42.363 10.998-86.364-15.964-97.372-59.402v0c-11.55-44.022 13.722-89.139 56.094-99.604z" fill="#000000" />
	<path d="M379.607 244.767l-126.935 32.962 2.693 10.322 41.175 158.259 126.935-32.901c19.927-4.915 37.058-17.838 48.128-36.362 12.083-20.204 15.575-45.159 9.595-68.485-5.909-23.019-20.736-42.998-40.694-54.804-18.739-11.070-40.346-14.264-60.897-8.99zM460.544 313.866c4.577 17.838 1.945 36.885-7.229 52.245-8.13 13.599-20.593 23.060-35.072 26.624-0.123 0.041-116.736 30.279-116.736 30.279l12.995 7.639-38.512-147.958-7.629 13.005 116.624-30.279c14.981-3.84 30.853-1.464 44.677 6.697 15.114 8.93 26.358 24.156 30.884 41.748z" fill="#000000" />
</svg>
